<svg width="128" height="158" viewBox="0 0 128 158" fill="none" xmlns="http://www.w3.org/2000/svg">
<g clip-path="url(#clip0_25_865)">
<path d="M103.271 67.3046C103.122 66.7838 102.856 66.3034 102.495 65.8991C102.134 65.4947 101.686 65.1768 101.185 64.9689C99.9691 64.4567 98.5659 64.6551 97.2688 64.5786C94.586 64.604 91.9066 64.83 89.2296 64.996C85.1403 65.3357 81.1355 66.27 77.078 66.8427C72.4747 67.4747 60.0781 68.9191 52.1041 68.971C46.7649 69.2282 41.4307 69.5928 36.0852 69.6961C32.7219 69.8614 29.3584 69.9879 26.0135 69.5068C28.8459 70.4868 31.7723 71.1709 34.7458 71.5483C38.5242 72.2067 42.3062 72.8413 46.1144 73.306C46.8402 73.3959 47.5572 73.4883 48.2706 73.5811C42.6643 73.8291 37.0504 73.8628 31.4481 74.2415C32.7992 74.5614 34.1607 74.8389 35.525 75.0977C39.701 75.8326 43.8224 76.8696 48.0273 77.4383C54.7336 78.2486 61.4682 78.9572 68.2158 79.3034C75.2701 79.6537 82.3415 79.3911 89.3503 78.5187C92.7071 77.9907 96.378 78.1086 99.3518 76.2642C101.296 75.0651 101.824 72.7735 102.574 70.7596C102.64 70.6166 102.699 70.4706 102.774 70.3321C103.058 69.8876 103.249 69.39 103.334 68.8695C103.42 68.349 103.399 67.8166 103.271 67.3046Z" fill="#325288"/>
<path d="M12.2127 30.2063L11.2226 133.758C11.1577 140.546 17.1384 146.823 23.9279 147.092C46.477 147.987 69.0261 148.882 91.5753 149.777C93.1804 149.841 94.7517 149.306 95.9831 148.275C97.2145 147.245 98.0178 145.793 98.2364 144.203C98.455 142.614 98.0732 140.999 97.1656 139.675C96.2579 138.351 94.8893 137.412 93.3265 137.041C80.1498 133.914 66.7071 130.677 55.2287 123.496C43.7503 116.314 34.379 104.355 33.9372 90.8326C33.2177 68.8138 25.0697 47.1024 12.2127 30.2063Z" fill="#325288"/>
<path d="M127.623 28.3249C127.576 23.4131 127.715 18.5026 127.736 13.5912C127.663 10.7921 128.058 7.81371 126.988 5.16547C125.59 2.57908 122.19 2.53423 119.621 2.03489C115.523 1.51771 113.931 1.1876 110.599 0.926135C94.1503 -0.630994 77.6367 0.190688 61.1527 0.439214C48.6958 0.592416 36.1221 0.157072 23.8314 2.55277C12.5046 4.90471 9.92132 8.89225 7.96661 19.9524C7.71527 21.3745 7.51921 22.8066 7.36765 24.2425C7.65805 23.2551 7.96089 22.2712 8.28968 21.2959C8.54066 20.5282 8.83842 19.6971 9.14288 18.8877C7.8168 24.1805 6.4622 29.4728 5.60383 34.865C3.8859 45.1329 3.08923 55.5264 2.50309 65.9124C1.61625 81.1328 0.377757 96.3407 0.0225958 111.587C-0.105548 120.57 0.341471 129.549 0.605852 138.527C0.812257 142.569 0.855257 146.624 1.20631 150.658C1.33923 158.815 10.6855 157.43 16.429 157.394C22.6458 157.126 28.8424 156.478 35.0655 156.326C39.9835 156.172 44.9022 156.425 49.821 156.4C56.397 156.431 62.961 155.941 69.5342 155.848C77.2547 155.936 84.9788 155.552 92.6958 155.813C97.8208 156.094 102.916 156.753 108.015 157.316C110.695 157.526 113.38 158.18 116.071 157.953C119.183 157.771 120.936 154.818 121.931 152.188C123.625 148.341 123.709 144.03 123.991 139.898C124.322 133.4 124.117 126.884 124.621 120.393C125.186 111.909 126.377 103.483 127.041 95.0076C127.722 85.9117 127.84 76.7854 127.951 67.6682C128.168 54.5523 127.593 41.441 127.623 28.3249ZM123.247 92.7534C122.602 102.037 121.217 111.252 120.581 120.537C119.942 128.895 120.495 140.129 119.472 146.59C118.757 151.492 116.547 154.345 115.727 154.06C112.983 154.14 110.259 153.514 107.531 153.265C101.2 152.541 94.8572 151.69 88.4736 151.695C81.5262 151.761 74.5786 151.812 67.631 151.848C62.738 151.994 57.8485 152.257 52.9537 152.342C46.1238 152.47 39.2922 152.032 32.4655 152.371C24.1199 152.575 8.42243 154.788 5.73876 152.21C5.71322 152.169 5.68672 152.128 5.66402 152.086C5.52056 151.573 5.4194 151.05 5.36157 150.521C5.26529 148.654 4.90776 140.967 4.82168 137.017C4.64307 128.242 4.2357 119.465 4.48515 110.687C4.90354 94.7513 6.03407 78.8478 6.83175 62.9295C7.21728 53.8993 7.27722 44.8566 7.80748 35.8323C8.10313 29.8679 8.86209 23.9427 9.47991 18.0064C9.89364 16.9435 10.2935 15.9793 10.58 15.3294C11.3791 13.381 12.4917 11.5762 13.8738 9.98645C16.8628 7.25639 21.4791 6.89031 24.4213 6.4813C33.2148 5.75307 42.0476 5.52948 50.8682 5.40318C68.7039 5.34634 86.532 3.85473 104.363 4.84888C108.422 5.02881 112.472 5.36531 116.509 5.82027C119.657 6.27046 120.294 6.10289 123.363 7.03467C123.376 7.04177 123.39 7.04696 123.402 7.05423C123.504 7.3351 123.577 7.62525 123.622 7.9205L123.612 7.85189C123.77 9.28653 123.804 10.7313 123.839 12.1732C123.787 24.6488 123.83 37.1241 124.074 49.5987C124.286 63.9838 124.09 78.3899 123.247 92.7534Z" fill="black"/>
<path d="M44.9451 31.2915C43.8743 28.9126 41.7935 26.8726 39.25 26.1564C38.3211 25.9571 37.3732 25.8602 36.4232 25.8674C37.5027 26.0938 38.5387 26.4925 39.4912 27.0483C40.4704 27.6978 41.305 28.5422 41.9426 29.5287C42.5802 30.5152 43.0072 31.6225 43.1968 32.7814C43.4402 35.8351 42.6971 38.3267 40.8031 40.9576C38.1335 45.0008 33.312 47.5828 30.2818 46.9953C26.5227 46.2764 24.1954 42.2609 23.9239 37.865C23.6305 34.5485 24.2351 31.2831 26.2108 28.3885C27.9383 26.1119 30.5578 24.8336 32.8859 23.278C29.0944 24.6226 24.8858 26.077 22.9171 29.8851C20.5651 34.1241 19.8204 39.4857 21.4703 44.0908C23.8157 50.5172 30.2208 53.4649 36.4285 50.2161C40.9639 47.9906 44.2125 43.3385 45.4276 38.5074C45.8559 36.1212 45.9388 33.5527 44.9451 31.2915Z" fill="black"/>
<path d="M89.8436 26.307C81.1386 26.0707 72.4293 26.5824 63.812 27.8363C71.253 28.8181 78.7764 29.6372 86.2909 29.3244C91.8886 29.0387 97.3722 27.8188 102.905 27.0136C99.9291 26.3072 93.8729 26.3991 89.8436 26.307Z" fill="black"/>
<path d="M104.608 38.8562C95.4832 36.8607 86.1159 37.9829 76.96 39.1372C72.4255 39.6559 67.8556 39.6899 63.3051 39.9916C68.6779 41.1132 74.1204 42.1196 79.6326 41.9516C87.5506 41.7907 94.3912 40.106 100.946 39.5465C102.665 39.3844 104.389 39.2771 106.114 39.1903C105.613 39.073 105.111 38.9597 104.608 38.8562Z" fill="black"/>
<path d="M91.6876 49.4802C81.3514 48.5353 71.071 50.5405 60.77 51.134C66.0886 52.0982 71.4833 52.5823 76.8888 52.5804C84.7378 52.5026 92.5341 51.4562 100.352 50.876C100.674 50.8533 100.997 50.8327 101.318 50.8107C98.1427 50.1455 94.9248 49.701 91.6876 49.4802Z" fill="black"/>
<path d="M98.1044 72.449C87.0957 71.3788 76.0261 71.8965 64.9916 72.1596C50.4023 72.3766 35.8152 72.8372 21.2252 72.9124C34.6462 75.7767 48.4079 77.309 62.1393 77.0178C74.2257 76.5175 86.1523 74.3103 98.1889 73.2441C99.4756 73.1112 100.765 72.9981 102.053 72.8887C100.74 72.7122 99.4242 72.5656 98.1044 72.449Z" fill="black"/>
<path d="M93.9226 91.2328C84.3292 89.9519 74.6221 89.644 64.9528 89.5085C51.346 89.5148 37.8507 91.5878 24.2671 92.1583C47.0612 95.784 70.1674 92.9734 93.024 91.4452C93.6727 91.3672 95.6105 91.425 93.9226 91.2328Z" fill="black"/>
<path d="M98.6646 118.214C94.0909 117.124 89.5082 116.021 84.8428 115.396C80.1659 114.767 75.4476 114.514 70.7481 114.106C64.0337 113.613 57.307 113.144 50.5707 113.202C41.9715 113.413 33.3757 113.749 24.774 113.43C33.0822 115.615 40.4121 116.67 48.7226 117.356C54.5689 117.85 60.3996 118.6 66.27 118.746C72.3309 118.954 78.3903 118.699 84.4469 118.495C88.8698 118.403 93.2941 118.493 97.7176 118.428C98.3852 118.373 100.398 118.559 98.6646 118.214Z" fill="black"/>
<path d="M37.8387 35.0364C37.6828 34.5317 37.4985 34.0361 37.3034 33.5452C37.2878 34.4016 37.2271 35.2566 37.1216 36.1066C36.6682 38.4556 35.8629 40.2868 33.6474 41.2313C32.3456 41.6767 32.1235 41.7868 30.723 41.3764C30.3111 41.1458 29.8158 40.2564 29.6097 39.7969C28.7889 37.3566 28.6913 35.0907 28.8387 32.4714C29.0102 31.2733 28.9181 29.5325 30.2649 29.0353C29.3274 29.0327 28.7625 29.7945 28.3675 30.5556C27.6641 31.9123 27.1611 33.3636 26.8742 34.8643C25.5636 40.1597 27.4538 46.8803 34.1619 44.3399C37.7606 42.8996 39.0758 38.5189 37.8387 35.0364Z" fill="#325288"/>
</g>
<defs>
<clipPath id="clip0_25_865">
<rect width="128" height="158" fill="white"/>
</clipPath>
</defs>
</svg>
