<svg width="67" height="162" viewBox="0 0 67 162" fill="none" xmlns="http://www.w3.org/2000/svg">
<path d="M47.1679 27.858L47.2218 27.8508C46.3142 20.268 43.6499 14.9258 40.6503 13.3156C39.4787 12.5301 38.1575 11.9902 36.7676 11.729C35.3778 11.4678 33.9487 11.4908 32.5682 11.7966C18.929 14.8336 14.34 38.13 15.4209 57.2784C16.009 67.0574 17.9473 76.9243 22.4877 85.6964C25.6571 91.7572 28.7996 97.9943 33.3872 103.142C29.7763 96.3297 27.9972 88.3687 25.9923 80.7482C24.7385 74.9879 24.3742 68.4335 24.6235 60.6942C25.5384 48.2325 25.3322 48.887 28.1085 36.3354C28.585 34.3765 29.0856 32.6277 29.588 31.0847C30.107 30.0667 30.7156 29.0959 31.4066 28.1838C30.7372 29.0457 31.2395 28.3948 31.6689 27.8443C31.5892 27.9508 31.5231 28.0397 31.5266 28.0305C33.5685 25.687 32.9845 26.0348 34.8332 25.0699C34.9131 25.0405 34.9911 25.0068 35.072 24.9802C35.0916 24.9736 35.1129 24.973 35.1326 24.9667C35.2229 24.9894 35.3122 25.0141 35.4015 25.0413C35.5594 25.1923 35.7128 25.3464 35.8576 25.5101C36.2325 26.127 36.4957 26.5452 36.6831 26.843C36.9346 27.5668 37.1736 28.2945 37.4001 29.0263C37.9409 32.1154 40.5113 34.6824 43.8257 33.7765C47.0679 32.5733 47.7083 30.2927 47.1679 27.858Z" fill="#325288"/>
<path d="M64.7341 127.82C61.8535 123.264 56.9997 119.664 51.5001 119.154C49.6266 119.009 47.7417 119.136 45.9051 119.53C48.6441 119.6 51.3284 120.304 53.7426 121.588C56.7381 123.448 59.1061 126.151 60.5446 129.35C61.5173 131.888 61.6222 133.278 61.3691 135.961C61.0398 137.594 60.1982 141.707 57.8667 144.852C57.2512 145.676 56.5615 146.444 55.8061 147.146C55.0148 147.941 54.1736 148.686 53.2877 149.376C45.2114 154.926 34.8652 155.955 28.2352 152.317C25.2398 150.6 25.6882 151.119 23.7973 149.164C23.0341 148.113 22.7695 148.061 21.8936 144.906C20.628 139.327 23.1179 136.022 28.4529 131.847C32.6682 129.161 37.7573 128.204 42.3999 126.442C37.6939 127.146 32.8242 127.367 28.2909 128.874C24.8292 130.348 21.7297 132.545 19.2045 135.316C17.0179 137.933 16.2867 141.413 16.3103 144.742C16.2193 152.832 22.3797 158.058 29.5094 160.715C36.8494 163.067 44.9986 162.069 51.8572 158.712C62.9961 153.703 71.1582 139.218 64.7341 127.82Z" fill="black"/>
<path d="M52.3021 11.1193C48.2582 3.4377 39.5133 -1.5773 30.7522 0.452807C16.708 3.44838 6.53348 15.8781 2.19423 28.9215C-2.00443 40.903 0.45826 53.9403 4.26114 65.7019C6.84566 73.6119 10.247 81.2367 14.4112 88.4551C19.2134 96.3144 24.6332 103.797 29.8735 111.374C24.7539 99.6805 20.2165 91.0053 16.6794 80.9019C12.5036 68.5396 9.93075 57.1798 9.44154 46.8327C9.3941 40.1862 9.41994 39.8656 10.6729 34.2974C10.873 33.2714 12.4413 29.1282 12.4791 28.9527C18.1073 15.6538 30.1189 7.39961 37.9655 10.1781C42.8276 12.1009 46.7448 18.7983 46.4241 30.5232C46.144 39.9224 44.315 49.207 43.3099 58.5461C42.1014 68.6317 41.1458 78.768 41.0629 88.9308C40.7716 96.7079 41.9371 104.476 41.6239 112.235C41.146 112.174 40.6672 112.12 40.186 112.092C36.802 111.859 33.4165 111.632 30.0439 111.269C33.3755 112.431 36.7674 113.417 40.2051 114.221C41.2579 114.384 42.4715 115.16 43.4339 114.405C43.7749 114.11 44.0048 113.709 44.0862 113.267C44.4864 111.769 44.7669 110.242 44.9251 108.7C45.3645 103.853 45.8497 99.0091 46.4164 94.1748C47.6117 83.507 50.4021 69.1566 52.7825 56.2769C54.3769 46.816 56.3083 37.2713 56.0842 27.6419C55.8473 21.9709 55.0344 16.1854 52.3021 11.1193Z" fill="black"/>
<path d="M40.9223 131.868C31.7282 132.093 31.7522 145.437 40.9227 145.688C50.1169 145.462 50.0931 132.118 40.9223 131.868Z" fill="#325288"/>
</svg>
