<svg width="167" height="143" viewBox="0 0 167 143" fill="none" xmlns="http://www.w3.org/2000/svg">
<g clip-path="url(#clip0_25_825)">
<path d="M127.472 59.6403C127.81 49.554 118.563 41.5315 108.753 41.6877C99.7479 42.3671 95.9515 44.7977 92.4094 47.961C85.2005 48.8295 78.2704 55.3498 75.0208 61.653C70.3941 70.1641 76.4852 80.4841 85.1398 83.298C94.1619 85.952 104.115 82.8059 111.408 76.8525C120.113 75.8967 127.044 69.3571 127.472 59.6403Z" fill="#325288"/>
<path d="M149.471 39.0597C139.005 22.782 118.882 13.3204 99.6576 16.2394C95.4382 17.1252 91.3384 18.5063 87.4438 20.3538C81.8641 20.4343 76.2931 20.7123 70.9967 22.6037C42.5748 31.0009 18.3644 54.807 18.8882 85.8206C18.0281 100.165 24.0478 113.778 32.3742 125.166C40.4385 136.704 54.2848 142.611 68.1154 142.936C83.7583 143.541 99.2936 139.8 113.623 133.697C130.294 126.668 145.676 114.614 154.156 98.4243C161.907 82.6384 158.274 53.9558 149.471 39.0597ZM140.032 88.5925C135.115 100.149 122.903 111.182 107.058 118.403C108.766 107.964 108.162 95.0499 102.085 87.9915C103.174 87.1155 104.211 86.177 105.191 85.1808C111.504 78.9527 115.524 70.1029 114.864 61.1522C114.529 52.9963 109.143 43.9738 101.246 42.7278C97.8039 42.4648 94.355 43.3954 91.1326 44.5299C94.3381 44.3867 97.7008 44.3763 100.753 45.4743C110.993 51.6872 108.602 66.1919 101.453 74.4118C97.675 78.203 93.9417 81.7041 88.6898 82.9541C87.5203 83.0488 86.3601 83.235 85.2198 83.511L85.1998 83.5115C83.8679 83.3989 84.3927 83.4744 82.308 82.7489C77.8685 81.68 70.5979 69.55 75.2029 57.7543C76.7503 53.4569 79.6875 49.4584 83.7276 47.2202C86.7204 45.7188 90.1373 45.6548 93.3784 45.0882C74.9914 40.9245 63.3128 61.1064 67.3028 77.2438C68.3066 81.8442 70.7084 86.0227 74.1799 89.2082C64.0279 97.3794 59.0209 111.066 55.0196 123.168C63.29 110.948 70.7765 98.463 81.6559 93.31C86.093 94.4535 90.7859 94.0771 94.9833 92.241C96.3311 93.0301 97.4147 94.2001 98.0974 95.6036C101.063 101.266 103.483 110.244 104.284 119.611C96.8993 122.692 89.1507 124.817 81.2264 125.934C68.0439 128.022 55.476 125.335 49.6836 120.449C38.988 110.931 31.8809 94.8548 31.5974 84.7161C29.3703 66.6613 40.8233 42.6925 64.185 30.1123C68.7704 27.494 73.416 24.8201 78.5098 23.3167C80.0609 22.9256 81.6263 22.5997 83.1977 22.3007C82.646 22.5584 82.0947 22.8152 81.5438 23.0712C80.9701 23.3518 80.3961 23.632 79.8219 23.9116C84.2835 22.5478 88.8261 21.4636 93.4231 20.6653C100.584 19.4205 106.94 20.5149 113.64 22.8092C127.372 27.657 138.42 39.6007 141.048 50.5379C143.437 60.3114 143.103 61.3118 142.832 71.3411C142.009 81.3734 142.603 80.7975 140.032 88.5925V88.5925Z" fill="black"/>
<path d="M83.9785 9.55815C86.6212 9.55815 88.7636 7.41848 88.7636 4.77907C88.7636 2.13966 86.6212 0 83.9785 0C81.3357 0 79.1934 2.13966 79.1934 4.77907C79.1934 7.41848 81.3357 9.55815 83.9785 9.55815Z" fill="black"/>
<path d="M4.7851 104.662C7.42784 104.662 9.57021 102.522 9.57021 99.8826C9.57021 97.2432 7.42784 95.1035 4.7851 95.1035C2.14236 95.1035 0 97.2432 0 99.8826C0 102.522 2.14236 104.662 4.7851 104.662Z" fill="black"/>
<path d="M162.215 126.649C164.858 126.649 167 124.509 167 121.87C167 119.23 164.858 117.091 162.215 117.091C159.572 117.091 157.43 119.23 157.43 121.87C157.43 124.509 159.572 126.649 162.215 126.649Z" fill="black"/>
</g>
<defs>
<clipPath id="clip0_25_825">
<rect width="167" height="143" fill="white"/>
</clipPath>
</defs>
</svg>
